# xmcd
#
# Track frame offsets: 
#        150
#        17595
#        51460
#        80507
#        98525
#        118757
#        133847
#        175127
#
# Disc length: 2573 seconds
#
# Revision: 0
# Processed by: cddbd v1.5.1PL0 Copyright (c) Steve Scherf et al.
# Submitted via: ExactAudioCopy v0.95a5
#
DISCID=640a0b08
DTITLE=Jandek - 0754 You Walk Alone
DYEAR=1988
DGENRE=Lo-fi
TTITLE0=Lavender
TTITLE1=Time and Space
TTITLE2=The Cat that Walked From Shelbyville
TTITLE3=Quinn Boys II
TTITLE4=The Way that You Act
TTITLE5=I Know the Times
TTITLE6=When the Telephone Melts
TTITLE7=War Dance
EXTD=
EXTT0=
EXTT1=
EXTT2=
EXTT3=
EXTT4=
EXTT5=
EXTT6=
EXTT7=
PLAYORDER=
